<svg width="24" height="24" viewBox="0 0 24 24" fill="none" xmlns="http://www.w3.org/2000/svg">
<path d="M12 21.9993C17.5224 21.9993 21.9993 17.5224 21.9993 12C21.9993 6.47756 17.5224 2.00073 12 2.00073C6.47756 2.00073 2.00073 6.47756 2.00073 12C2.00073 17.5224 6.47756 21.9993 12 21.9993Z" stroke="black" stroke-width="1.39525" stroke-linecap="round" stroke-linejoin="round"/>
<path d="M12 14.558C13.4127 14.558 14.5579 13.4127 14.5579 12C14.5579 10.5873 13.4127 9.44205 12 9.44205C10.5873 9.44205 9.44202 10.5873 9.44202 12C9.44202 13.4127 10.5873 14.558 12 14.558Z" stroke="black" stroke-width="1.39525" stroke-linecap="round" stroke-linejoin="round"/>
<path d="M12.6976 12C12.6976 12.138 12.6567 12.2729 12.58 12.3876C12.5034 12.5023 12.3944 12.5917 12.267 12.6445C12.1395 12.6973 11.9992 12.7111 11.8639 12.6842C11.7286 12.6573 11.6043 12.5909 11.5067 12.4933C11.4091 12.3957 11.3427 12.2714 11.3158 12.1361C11.2889 12.0008 11.3027 11.8605 11.3555 11.733C11.4083 11.6056 11.4977 11.4966 11.6124 11.42C11.7271 11.3433 11.862 11.3024 12 11.3024C12.1843 11.3048 12.3603 11.3791 12.4906 11.5094C12.6209 11.6397 12.6952 11.8157 12.6976 12Z" fill="black"/>
<path d="M12 4.32614C9.9648 4.32614 8.01292 5.13463 6.57379 6.57376C5.13467 8.01289 4.32617 9.96476 4.32617 12" stroke="black" stroke-width="1.39525" stroke-linecap="round" stroke-linejoin="round"/>
<path d="M12.0001 6.88409C10.6432 6.88409 9.34199 7.42309 8.38257 8.38251C7.42315 9.34193 6.88416 10.6432 6.88416 12" stroke="black" stroke-width="1.39525" stroke-linecap="round" stroke-linejoin="round"/>
<path d="M12 19.6739C14.0352 19.6739 15.9871 18.8654 17.4262 17.4262C18.8654 15.9871 19.6739 14.0352 19.6739 12" stroke="black" stroke-width="1.39525" stroke-linecap="round" stroke-linejoin="round"/>
<path d="M12 17.1159C13.3568 17.1159 14.6581 16.5769 15.6175 15.6175C16.5769 14.6581 17.1159 13.3568 17.1159 12" stroke="black" stroke-width="1.39525" stroke-linecap="round" stroke-linejoin="round"/>
</svg>
